Coordinates
nRows=7
nColumns=34

# SIMM Motion File Header:
name Coordinates
datacolumns 34
datarows 7
otherdata 1
range 0.30200000000000005000 0.30800000000000000000

Units are S.I. units (second, meters, Newtons, ...)
Angles are in degrees.

endheader
time	pelvis_tz	pelvis_tx	pelvis_ty	pelvis_tilt	pelvis_list	pelvis_rotation	hip_flexion_r	hip_adduction_r	hip_rotation_r	knee_r_tx	knee_r_ty	knee_angle_r	tib_pat_r_tx	tib_pat_r_ty	tib_pat_r_r1	ankle_angle_r	subtalar_angle_r	mtp_angle_r	hip_flexion_l	hip_adduction_l	hip_rotation_l	knee_l_tx	knee_l_ty	knee_angle_l	tib_pat_l_tx	tib_pat_l_ty	tib_pat_l_r1	ankle_angle_l	subtalar_angle_l	mtp_angle_l	lumbar_extension	lumbar_bending	lumbar_rotation
      0.30200000000000005000	     -0.25366901793014823000	      0.14717411684645246000	      0.92716558335275334000	     -1.67411702352302650000	      2.82198183627558440000	     -3.05778868312136610000	      1.60367674827029290000	     -0.48679843909953024000	     16.88027258491381800000	     -0.00405568685633505600	     -0.41352455264886939000	     -5.17380907121333780000	      0.04601007074917044100	     -0.02110142772071264500	      5.41731610605662970000	      8.27305374342249420000	      0.00000000000000262674	      0.00000000000000846040	     17.44322468042176800000	      3.37687506400192560000	     -1.24646413978369130000	      0.00416023310340950160	     -0.42273150483092164000	    -58.16999363700347900000	      0.03609299482283737800	     -0.01914114948310561400	     17.35611573523643300000	      1.82563129350177270000	      0.00000000000001652020	     -0.00000000000001844216	     -2.29505766900795380000	      0.71419596625366388000	      3.02250808055449350000
      0.30300000000000005000	     -0.25363463500796546000	      0.14810074690680358000	      0.92718397742538405000	     -1.66253184069635010000	      2.86192228430408900000	     -3.06860282467207050000	      1.51226403018779300000	     -0.53144762085963626000	     16.88852582652156500000	     -0.00406046772458351630	     -0.41352188392633360000	     -5.14112355496281910000	      0.04601440414793293900	     -0.02110289839860974800	      5.38782141409876750000	      8.31649093268849170000	      0.00000000000000264778	      0.00000000000000847182	     17.53552838967171500000	      3.39952116260428070000	     -1.26976103380051830000	      0.00415048440722130380	     -0.42269445049120324000	    -58.03142876580212600000	      0.03612675318015534700	     -0.01914540492754896600	     17.35275091269063100000	      1.91248744503424310000	      0.00000000000001658571	     -0.00000000000001864772	     -2.31670984716401880000	      0.65881913121513613000	      3.04052811725744700000
      0.30400000000000005000	     -0.25360218636486120000	      0.14902695657308906000	      0.92720033293381876000	     -1.65119385161914470000	      2.90101302562542960000	     -3.07899104441566120000	      1.42117720540031420000	     -0.57535129508572602000	     16.89592091969075900000	     -0.00406521051096543890	     -0.41351923209954417000	     -5.10861544900023650000	      0.04601869463377297700	     -0.02110435511744100000	      5.35841114990991410000	      8.35991288092957420000	      0.00000000000000266610	      0.00000000000000851199	     17.62719245691234300000	      3.42169944001513530000	     -1.29234046777384020000	      0.00414038868957396220	     -0.42265666989263473000	    -57.88991216769814900000	      0.03616118760948512000	     -0.01914975402218624000	     17.34925927068691800000	      1.99755094260522780000	      0.00000000000001660283	     -0.00000000000001887417	     -2.33817922518965910000	      0.60469398908980787000	      3.05778199046338810000
      0.30499999999999999000	     -0.25357167200083558000	      0.14995274584530879000	      0.92721464987805746000	     -1.64010305629141030000	      2.93925406023960580000	     -3.08895334235213780000	      1.33041627390786150000	     -0.61850946177779798000	     16.90245786442140000000	     -0.00406991521548082280	     -0.41351659716850109000	     -5.07628475332559330000	      0.04602294220669056500	     -0.02110579787720640000	      5.32908531349007220000	      8.40331958814573990000	      0.00000000000000268169	      0.00000000000000858091	     17.71821688214365400000	      3.44340989623448830000	     -1.31420244170365660000	      0.00412994595046747670	     -0.42261816303521610000	    -57.74544384269157900000	      0.03619629811082669700	     -0.01915419676701743400	     17.34564080922529100000	      2.08082178621472470000	      0.00000000000001657156	     -0.00000000000001912151	     -2.35946580308487470000	      0.55182053987768043000	      3.07426970017231670000
      0.30599999999999999000	     -0.25354115763680996000	      0.15087853511752858000	      0.92722896682229627000	     -1.62901226096367570000	      2.97749509485378280000	     -3.09891564028861440000	      1.23965534241540420000	     -0.66166762846987159000	     16.90899480915203800000	     -0.00407461991999620660	     -0.41351396223745801000	     -5.04395405765094740000	      0.04602718977960814500	     -0.02110724063697180100	      5.29975947707022850000	      8.44672629536190730000	      0.00000000000000269729	      0.00000000000000864983	     17.80924130737496800000	      3.46512035245384190000	     -1.33606441563347330000	      0.00411950321136099130	     -0.42257965617779747000	    -57.60097551768498600000	      0.03623140861216828100	     -0.01915863951184863100	     17.34202234776366300000	      2.16409262982422360000	      0.00000000000001654029	     -0.00000000000001936886	     -2.38075238098009080000	      0.49894709066555154000	      3.09075740988124540000
      0.30700000000000000000	     -0.25351452919676437000	      0.15180346245002055000	      0.92723914623924919000	     -1.61844043163442990000	      3.01390060630130960000	     -3.10805508074430300000	      1.14958663749702320000	     -0.70317599712630297000	     16.91383580603382700000	     -0.00407924477674358010	     -0.41351136349935042000	     -5.01200966624507240000	      0.04603134782841963900	     -0.02110865414341938200	      5.27063579044376510000	      8.48949237933005920000	      0.00000000000000269865	      0.00000000000000876298	     17.89898951345574900000	      3.48576335135918390000	     -1.35645032040926750000	      0.00410833999607154370	     -0.42253972720480881000	    -57.45065326586056600000	      0.03626784819564526900	     -0.01916326922834148500	     17.33813578043869800000	      2.24312348522400250000	      0.00000000000001647458	     -0.00000000000001963078	     -2.40166691106839280000	      0.44875469758502812000	      3.10579734979073190000
      0.30800000000000000000	     -0.25348790075671879000	      0.15272838978251252000	      0.92724932565620199000	     -1.60786860230518420000	      3.05030611774883690000	     -3.11719452119999160000	      1.05951793257864210000	     -0.74468436578273445000	     16.91867680291561300000	     -0.00408386963349095280	     -0.41350876476124288000	     -4.98006527483919740000	      0.04603550587723113200	     -0.02111006764986696600	      5.24151210381730070000	      8.53225846329821280000	      0.00000000000000270001	      0.00000000000000887614	     17.98873771953653000000	      3.50640635026452600000	     -1.37683622518506190000	      0.00409717678078209620	     -0.42249979823182010000	    -57.30033101403613900000	      0.03630428777912225000	     -0.01916789894483433800	     17.33424921311372900000	      2.32215434062378100000	      0.00000000000001640886	     -0.00000000000001989271	     -2.42258144115669480000	      0.39856230450450469000	      3.12083728970021830000
